<svg xmlns="http://www.w3.org/2000/svg" width="512" height="512" viewBox="0 0 512 512">
<rect width="512" height="512" fill="#17172c"/><g fill="#45445f" opacity=".85">
<circle cx="16" cy="16" r="3"/><circle cx="48" cy="16" r="3"/><circle cx="80" cy="16" r="3"/><circle cx="112" cy="16" r="3"/><circle cx="144" cy="16" r="3"/><circle cx="176" cy="16" r="3"/><circle cx="208" cy="16" r="3"/><circle cx="240" cy="16" r="3"/><circle cx="272" cy="16" r="3"/><circle cx="304" cy="16" r="3"/><circle cx="336" cy="16" r="3"/><circle cx="368" cy="16" r="3"/><circle cx="400" cy="16" r="3"/><circle cx="432" cy="16" r="3"/><circle cx="464" cy="16" r="3"/><circle cx="496" cy="16" r="3"/>
</g><path d="M0 128h512M0 256h512M0 384h512M128 0v512M256 0v512M384 0v512" stroke="#6b6b82" stroke-width="3" opacity=".5"/><path d="M0 122h512M0 390h512" stroke="#51c9d2" stroke-width="3" opacity=".28"/>
</svg>
